<?xml version="1.0" encoding="utf-8"?>
<!-- Generator: Adobe Illustrator 17.0.0, SVG Export Plug-In . SVG Version: 6.00 Build 0)  -->
<!DOCTYPE svg PUBLIC "-//W3C//DTD SVG 1.1//EN" "http://www.w3.org/Graphics/SVG/1.1/DTD/svg11.dtd">
<svg version="1.1" id="Capa_1" xmlns="http://www.w3.org/2000/svg" xmlns:xlink="http://www.w3.org/1999/xlink" x="0px" y="0px"
	 width="907.09px" height="907.09px" viewBox="0 0 907.09 907.09" enable-background="new 0 0 907.09 907.09" xml:space="preserve">
<path fill="#2E58A6" d="M591.047,218.958c1.87,5.594,5.891,8.068,11.048,8.945c2.211,0.376,4.418,1.13,6.728,0.637
	c1.103-0.236,1.952,0.344,2.746,0.984c3.82,3.082,7.78,6.011,11.413,9.3c8.657,7.835,16.087,16.672,21.138,27.317
	c3.496,7.369,5.519,15.098,5.711,23.292c0.052,2.232-0.383,4.27-1.647,6.073c-2.239,3.193-4.396,6.465-6.881,9.46
	c-5.228,6.299-10.63,12.455-15.99,18.644c-18.885,21.804-37.981,43.428-56.614,65.445c-15.377,18.17-30.233,36.782-45.256,55.25
	c-1.498,1.842-3.09,3.033-5.456,3.643c-13.779,3.558-27.667,6.573-41.705,8.913c-11.053,1.842-22.148,3.347-33.284,4.598
	c-11.011,1.237-22.036,2.288-33.093,3.002c-3.895,0.252-7.789,0.523-11.686,0.74c-0.816,0.045-1.642-0.111-2.719-0.194
	c0.478-1.686,1.481-2.664,2.322-3.702c7.368-9.107,14.61-18.322,22.181-27.257c20.767-24.506,41.711-48.861,62.504-73.344
	c5.542-6.526,10.807-13.287,16.164-19.969c0.941-1.174,1.785-2.445,2.53-3.753c1.283-2.252,0.871-4.332-1.109-6.066
	c-1.263-1.106-2.788-1.669-4.415-2.014c-4.623-0.978-9.276-0.667-13.921-0.3c-16.429,1.296-32.216,5.492-47.787,10.648
	c-17.835,5.905-35.037,13.357-52.057,21.26c-31.415,14.589-62.119,30.576-92.577,47.048c-24.922,13.478-49.665,27.277-74.188,41.469
	c-6.866,3.973-13.721,7.965-20.521,12.049c-2.259,1.357-4.408,2.93-6.456,4.59c-1.251,1.014-2.358,2.282-3.28,3.609
	c-2.302,3.312,0.14,6.671,3.392,6.711c6.544,0.081,13.082,0.649,19.627,0.742c20.905,0.297,41.812,0.505,62.718,0.671
	c7.935,0.063,15.871-0.03,23.806-0.143c14.356-0.205,28.713-0.381,43.065-0.753c11.453-0.296,22.902-0.819,34.348-1.329
	c7.671-0.342,15.336-0.827,23.002-1.269c4.524-0.261,9.051-0.502,13.568-0.858c10.041-0.793,20.097-1.457,30.108-2.536
	c12.261-1.322,24.485-2.969,36.667-4.95c16.91-2.751,33.654-6.228,50.194-10.684c26.231-7.067,51.46-16.701,75.419-29.562
	c3.993-2.143,7.914-4.422,11.849-6.673c0.846-0.484,1.604-1.121,2.579-1.812c-0.563-0.886-0.957-1.645-1.478-2.303
	c-4.719-5.958-10.193-11.17-16.187-15.801c-3.879-2.997-8.01-5.669-12.031-8.483c-0.82-0.574-1.653-1.128-2.658-1.812
	c0.342-0.593,0.562-1.165,0.94-1.601c11.293-13.049,22.601-26.085,33.913-39.116c0.243-0.28,0.572-0.484,1.037-0.869
	c0.706,0.294,1.511,0.568,2.26,0.952c10.66,5.471,20.973,11.527,30.597,18.681c9.155,6.805,17.296,14.62,23.597,24.241
	c8.084,12.345,10.903,25.8,8.947,40.37c-1.746,13.009-6.897,24.652-13.995,35.533c-7.718,11.83-17.465,21.794-28.435,30.597
	c-11.632,9.334-24.224,17.184-37.481,23.991c-20.938,10.75-42.961,18.492-65.792,24.114c-16.873,4.154-33.843,7.839-50.934,10.926
	c-13.124,2.371-26.306,4.453-39.502,6.391c-12.701,1.866-25.445,3.446-38.185,5.025c-6.12,0.759-12.274,1.248-18.416,1.82
	c-9.652,0.899-19.304,1.786-28.96,2.634c-4.012,0.352-8.032,0.629-12.052,0.872c-5.908,0.357-11.819,0.666-17.729,0.971
	c-8.173,0.423-16.346,0.831-24.52,1.229c-2.012,0.098-4.027,0.166-6.041,0.193c-10.831,0.145-21.662,0.399-32.492,0.373
	c-13.224-0.032-26.449-0.208-39.67-0.513c-7.297-0.169-14.585-0.717-21.876-1.119c-5.028-0.277-10.062-0.509-15.08-0.918
	c-7.526-0.612-15.054-1.25-22.558-2.08c-8.881-0.983-17.775-1.949-26.595-3.351c-8.943-1.421-17.815-3.301-26.695-5.098
	c-8.9-1.801-17.557-4.477-26.014-7.763c-6.831-2.654-13.355-5.91-19.153-10.479c-3.396-2.676-6.366-5.725-8.463-9.545
	c-2.176-3.964-3.097-8.201-2.83-12.726c0.118-2.001,0.029-4.014,0.021-6.022c-0.009-2.141-0.099-4.284-0.035-6.422
	c0.11-3.648,0.287-7.295,0.48-10.939c0.821-15.525,3.15-30.801,7.854-45.649c6.055-19.115,16.327-35.603,30.888-49.44
	c9.247-8.787,19.153-16.74,29.594-24.038c20.586-14.39,42.466-26.569,64.847-37.894c27.527-13.93,55.407-27.116,83.654-39.514
	c23.977-10.524,48.22-20.4,72.778-29.5c26.91-9.972,54.029-19.333,81.451-27.798c17.077-5.272,34.28-10.111,51.644-14.348
	c15.523-3.788,31.14-7.173,46.868-10.007c11.151-2.01,22.377-3.578,33.679-4.415c7.297-0.54,14.608-0.447,21.783,1.338
	C587.782,217.911,589.327,218.443,591.047,218.958z"/>
<path fill="#2E58A6" d="M312.904,583.475c7.293-0.339,14.213-0.611,21.126-0.995c6.033-0.335,12.059-0.786,18.086-1.205
	c3.893-0.271,7.786-0.55,11.675-0.871c9.911-0.818,19.831-1.541,29.725-2.528c10.143-1.012,20.258-2.299,30.388-3.448
	c0.988-0.112,1.989-0.101,2.995-0.148c0.262,1.434-0.727,2.2-1.315,3.099c-9.103,13.905-18.37,27.705-27.317,41.71
	c-9.898,15.493-19.395,31.236-27.547,47.742c-5.925,11.996-10.822,24.376-13.808,37.462c-1.433,6.28-2.292,12.646-2.488,19.064
	c-0.151,4.96,0.999,9.75,3.18,14.245c1.548,3.191,3.518,6.11,5.866,8.764c6.613,7.476,14.774,12.841,23.72,17.476
	c1.106-0.57,2.232-1.09,3.302-1.709c13.96-8.074,27.52-16.77,40.718-26.039c27.158-19.075,52.497-40.364,76.821-62.897
	c25.713-23.82,49.873-49.147,73.186-75.299c28.753-32.256,56.501-65.366,83.821-98.835c15.37-18.829,30.48-37.871,45.7-56.823
	c1.097-1.367,2.135-2.781,3.235-4.217c-0.349-0.968-0.597-1.798-0.945-2.583c-0.459-1.035-0.89-2.107-1.518-3.038
	c-3.279-4.871-3.778-10.204-3.212-15.909c1.206-12.157,5.201-23.267,11.792-33.504c8.497-13.195,18.462-25.201,29.764-36.05
	c13.901-13.344,28.015-26.467,42.061-39.66c3.304-3.104,6.686-6.126,10.063-9.152c5.98-5.358,13.046-7.933,21.03-8.07
	c3.021-0.052,6.025,0.004,9.021,0.631c9.56,2.001,13.85,8.625,14.334,16.986c0.406,7.01-0.869,13.78-2.771,20.481
	c-2.551,8.986-6.034,17.616-9.877,26.107c-9.049,19.997-19.807,39.064-31.503,57.615c-15.19,24.093-31.728,47.246-48.939,69.924
	c-24.606,32.422-50.612,63.698-77.421,94.311c-30.626,34.972-62.138,69.127-94.555,102.449
	c-24.332,25.012-49.124,49.559-74.273,73.749c-13.708,13.185-27.485,26.295-41.821,38.804c-12.628,11.019-25.608,21.595-39.278,31.3
	c-9.973,7.079-20.279,13.616-31.442,18.698c-4.473,2.037-9.064,3.737-13.828,4.999c-7.723,2.045-15.44,1.838-23.189,0.263
	c-9.981-2.027-19.155-6.111-27.997-11.02c-18.689-10.376-34.101-24.444-46.842-41.543c-7.718-10.358-14.272-21.354-18.654-33.547
	c-3.682-10.246-5.715-20.796-6.373-31.704c-0.786-13.031,1.604-25.542,5.063-37.943c3.694-13.242,8.638-26.038,14.21-38.588
	c10.076-22.696,21.803-44.54,34.323-65.968C311.697,585.203,312.292,584.398,312.904,583.475z"/>
<path fill="#2E58A6" d="M337.604,268.006c-1.228,0.623-1.756,0.956-2.329,1.173c-25.662,9.733-50.958,20.346-75.987,31.6
	c-0.115,0.052-0.244,0.08-0.347,0.148c-2.111,1.4-4.199,1.149-6.422,0.152c-3.213-1.441-6.482-2.765-9.775-4.014
	c-4.542-1.723-8.522-4.33-12.142-7.508c-4.083-3.584-7.767-7.529-10.819-12.056c-3.122-4.629-4.742-9.641-4.656-15.265
	c0.183-11.881,1.579-23.609,4.416-35.138c5.009-20.353,13.298-39.31,24.804-56.824c10.169-15.479,23.149-28.154,38.691-38.227
	c12.731-8.251,26.344-14.754,40.348-20.491c19.947-8.172,40.456-14.672,61.259-20.226c12.639-3.375,25.355-6.493,38.112-9.391
	c10.791-2.451,21.666-4.554,32.551-6.561c10.146-1.871,20.332-3.545,30.538-5.058c8.836-1.309,17.717-2.32,26.589-3.37
	c8.123-0.961,16.254-1.882,24.396-2.664c7.267-0.698,14.552-1.209,21.832-1.752c6.653-0.496,13.307-1.016,19.969-1.362
	c8.298-0.431,16.606-0.678,24.909-1.031c19.636-0.835,39.284-0.628,58.929-0.631c5.793-0.001,11.594-0.055,17.379,0.19
	c12.072,0.511,24.141,1.131,36.203,1.855c6.782,0.407,13.56,0.985,20.317,1.707c15.655,1.672,31.22,3.896,46.374,8.363
	c5.082,1.498,10.021,3.373,14.681,5.921c3.108,1.699,6.015,3.678,8.442,6.297c2.76,2.978,4.386,6.441,4.382,10.55
	c-0.009,9.596-0.764,19.105-3.251,28.426c-2.485,9.312-7.119,17.42-13.442,24.638c-4.436,5.064-9.297,9.617-15.411,12.562
	c-3.28,1.58-6.693,2.925-10.135,4.117c-16.061,5.562-32.401,10.185-48.826,14.547c-17.522,4.653-34.787,10.138-51.709,16.689
	c-14.092,5.455-27.982,11.356-41.606,17.899c-4.643,2.23-9.481,4.06-14.269,5.975c-1.628,0.651-3.368,1.114-5.169,0.857
	c-0.861-0.123-1.724-0.327-2.545-0.613c-0.905-0.315-1.386-1.022-1.46-2.007c-0.106-1.417,0-2.811,0.863-3.978
	c1.342-1.815,2.639-3.696,4.2-5.312c4.658-4.824,10.061-8.76,15.58-12.523c13.185-8.991,27.507-15.73,42.407-21.325
	c8.72-3.274,17.423-6.605,25.76-10.79c1.901-0.954,3.72-2.117,5.439-3.372c1.434-1.046,1.281-2.417-0.26-3.305
	c-0.86-0.496-1.817-0.893-2.78-1.127c-2.075-0.505-4.166-1.089-6.281-1.26c-5.142-0.414-10.302-0.834-15.455-0.851
	c-13.602-0.047-27.211-0.096-40.806,0.258c-14.594,0.381-29.196,0.716-43.767,1.798c-9.29,0.69-18.602,1.076-27.892,1.762
	c-7.154,0.528-14.292,1.292-21.433,1.988c-5.638,0.55-11.276,1.111-16.905,1.749c-7.003,0.794-14.008,1.595-20.993,2.534
	c-8.354,1.123-16.711,2.255-25.025,3.638c-11.42,1.899-22.844,3.821-34.185,6.133c-12.078,2.462-24.114,5.175-36.073,8.164
	c-21.399,5.35-42.345,12.108-62.433,21.323c-6.639,3.045-13.155,6.346-19.359,10.215c-5.786,3.608-11.292,7.594-15.924,12.654
	c-3.524,3.85-6.434,8.079-7.618,13.277c-1.68,7.377,0.417,13.393,6.478,18.006c4.192,3.19,9.008,4.998,14.014,6.338
	c5.102,1.365,10.249,2.564,15.375,3.843C335.822,267.437,336.282,267.601,337.604,268.006z"/>
<path fill="#2E58A6" d="M476.287,352.213c-12.165-1.703-23.872-3.341-35.576-4.993c-0.186-0.026-0.347-0.226-0.529-0.351
	c9.5-4.346,36.755-10.873,47.524-9.799c-0.104,0.461-0.078,0.984-0.318,1.311C483.9,343.159,480.094,347.68,476.287,352.213z"/>
</svg>
